<?xml version="1.0" standalone="no"?><!DOCTYPE svg PUBLIC "-//W3C//DTD SVG 1.1//EN" "http://www.w3.org/Graphics/SVG/1.1/DTD/svg11.dtd"><svg t="1758093461282" class="icon" viewBox="0 0 1024 1024" version="1.1" xmlns="http://www.w3.org/2000/svg" p-id="10573" xmlns:xlink="http://www.w3.org/1999/xlink" width="200" height="200"><path d="M539.699324 0H196.6077C158.808623 0 128.009375 30.799248 128.009375 68.598325v886.77835c0 37.799077 30.699251 68.598325 68.598325 68.598326h281.893118c18.999536 0 34.299163-15.299626 34.299162-34.299163s-15.299626-34.299163-34.299162-34.299163H196.6077V68.598325h324.692073l306.192525 176.795684v371.49093c0 18.999536 15.299626 34.299163 34.299162 34.299163 18.999536 0 34.299163-15.299626 34.299163-34.299163V205.694978L539.699324 0z" fill="#383838" p-id="10574"></path><path d="M895.490637 867.978809c-0.199995-1.699958-0.599985-3.299919-0.999975-4.89988-0.199995-0.79998-0.499988-1.499963-0.699983-2.299944-0.699983-1.699958-1.399966-3.399917-2.299944-4.999878-0.199995-0.499988-0.299993-0.899978-0.599985-1.399966-0.099998-0.199995-0.199995-0.299993-0.299993-0.599985-0.79998-1.399966-1.799956-2.499939-2.899929-3.799907-0.599985-0.699983-0.999976-1.599961-1.699959-2.299944l-117.397133-116.997144c-6.699836-6.699836-15.499622-10.099753-24.299407-10.099753s-17.59957 3.299919-24.299407 10.099753a34.342162 34.342162 0 0 0 0 48.698811l58.598569 58.59857H363.403628c-18.899539 0-34.299163 15.399624-34.299163 34.299162s15.399624 34.299163 34.299163 34.299163h415.189863L719.994922 965.176436a34.342162 34.342162 0 0 0 0 48.698811c13.49967 13.49967 35.199141 13.49967 48.698811 0L885.990869 896.578111c3.099924-3.099924 5.499866-6.699836 7.099827-10.499744 0.099998-0.299993 0.299993-0.599985 0.499988-0.79998 0.299993-0.899978 0.499988-1.799956 0.699983-2.699934 0.499988-1.399966 0.899978-2.699934 1.099973-4.0999 0.199995-0.999976 0.199995-2.099949 0.299993-3.099925 0.099998-0.999976 0.299993-1.899954 0.299992-2.999926 0-0.599985-0.099998-0.999976-0.099997-1.499964-0.099998-1.099973-0.299993-1.999951-0.399991-2.899929zM453.901418 648.684163l40.299017-171.895803 11.399721 171.895803h101.697517l94.297698-343.791607h-73.698201l-75.998144 236.594224-13.399673-236.594224h-78.198091l-42.098972 224.89451-26.299358-224.89451h-69.498303l35.799126 343.791607z" fill="#383838" p-id="10575"></path></svg>