<?xml version="1.0" standalone="no"?><!DOCTYPE svg PUBLIC "-//W3C//DTD SVG 1.1//EN" "http://www.w3.org/Graphics/SVG/1.1/DTD/svg11.dtd"><svg t="1758093396284" class="icon" viewBox="0 0 1024 1024" version="1.1" xmlns="http://www.w3.org/2000/svg" p-id="8569" xmlns:xlink="http://www.w3.org/1999/xlink" width="200" height="200"><path d="M676.693333 0h-539.526881A39.418495 39.418495 0 0 0 97.803011 39.418495v945.16301A39.418495 39.418495 0 0 0 137.166452 1024h749.653333a39.432258 39.432258 0 0 0 39.432258-39.418495v-750.107527z m5.505377 80.708817L846.850753 235.354839H682.19871zM152.856774 968.946237V55.053763h474.288172v235.354839h244.053334v678.537635z" fill="#CDCDCD" p-id="8570"></path><path d="M192.220215 918.475699h632.196129V875.354839l-127.532043-170.666667-86.709677 86.709677-205.99742-272.061935-211.956989 220.215054v178.924731z" fill="#B8482C" p-id="8571"></path><path d="M661.787527 477.825376m-85.099355 0a85.099355 85.099355 0 1 0 170.19871 0 85.099355 85.099355 0 1 0-170.19871 0Z" fill="#4986DB" p-id="8572"></path></svg>