<?xml version="1.0" standalone="no"?><!DOCTYPE svg PUBLIC "-//W3C//DTD SVG 1.1//EN" "http://www.w3.org/Graphics/SVG/1.1/DTD/svg11.dtd"><svg t="1758101281645" class="icon" viewBox="0 0 1024 1024" version="1.1" xmlns="http://www.w3.org/2000/svg" p-id="5093" xmlns:xlink="http://www.w3.org/1999/xlink" width="200" height="200"><path d="M905.18 178.85c-6.61-6.16-13.993-13.02-21.97-20.408-22.793-21.113-45.78-42.228-67.518-61.948-2.455-2.226-2.455-2.226-4.911-4.45-29.002-26.257-53.195-47.66-71.072-62.743-10.46-8.825-18.693-15.433-24.743-19.792-4.016-2.893-7.28-4.977-10.5-6.503-4.053-1.922-7.833-3.093-13.164-2.993-14.26 0.267-25.707 11.763-25.707 26.177v230.263h230.399l-25.6-25.585v767.547l25.6-25.585H230.379c-42.476 0-76.78-34.205-76.78-76.622V26.19l-25.6 25.585h460.797c14.138 0 25.6-11.455 25.6-25.585S602.934 0.605 588.796 0.605H102.399v895.603C102.4 966.91 159.652 1024 230.38 1024h691.215V205.284H691.195l25.6 25.584V26.19c0 13.63-11.052 24.73-24.532 24.984-4.562 0.086-7.198-0.731-9.74-1.936-0.269-0.127 0.817 0.566 2.501 1.78 4.75 3.422 12.117 9.334 21.657 17.382 17.323 14.615 41.13 35.68 69.728 61.568a6296.037 6296.037 0 0 1 4.87 4.415c21.593 19.587 44.454 40.587 67.13 61.59a9988.951 9988.951 0 0 1 21.855 20.302c3.94 3.671 6.75 6.296 8.23 7.681 10.319 9.66 26.519 9.13 36.184-1.183s9.135-26.503-1.184-36.162a5497.693 5497.693 0 0 0-8.314-7.76zM102.4 461.134H0v434.943h1023.993V461.133H153.6v-0.598h-51.2v0.598z m105.799 249.868v108.2h-50.6V528.002h111.4c32.532 0 58.366 8.467 77.499 25.4 19.133 16.933 28.7 39.333 28.7 67.2 0 28.533-9.367 50.732-28.1 66.6-18.733 15.866-44.966 23.8-78.7 23.8h-60.2z m0-40.6h60.8c18 0 31.732-4.233 41.199-12.7 9.467-8.466 14.2-20.7 14.2-36.7 0-15.732-4.8-28.3-14.4-37.699-9.6-9.4-22.8-14.233-39.6-14.5h-62.2v101.6z m211.198 148.8V528.002h86c25.732 0 48.566 5.733 68.5 17.2 19.932 11.467 35.366 27.733 46.299 48.8 10.933 21.067 16.4 45.2 16.4 72.4v14.6c0 27.6-5.5 51.866-16.5 72.799s-26.667 37.067-47 48.4c-20.333 11.332-43.633 17-69.9 17h-83.799z m50.6-250.399v209.999h33c26.532 0 46.9-8.3 61.1-24.9 14.2-16.6 21.432-40.433 21.699-71.5v-16.2c0-31.6-6.867-55.732-20.6-72.4-13.733-16.666-33.667-24.999-59.8-24.999h-35.4z m384.797 127H737.595V819.2h-50.6V528.003h185v40.8h-134.4v86.6h117.2v40.4z" fill="#2c2c2c" p-id="5094"></path></svg>