<?xml version="1.0" standalone="no"?><!DOCTYPE svg PUBLIC "-//W3C//DTD SVG 1.1//EN" "http://www.w3.org/Graphics/SVG/1.1/DTD/svg11.dtd"><svg t="1758093144156" class="icon" viewBox="0 0 1024 1024" version="1.1" xmlns="http://www.w3.org/2000/svg" p-id="3994" xmlns:xlink="http://www.w3.org/1999/xlink" width="200" height="200"><path d="M298.666667 128h298.666666v170.666667H298.666667z" fill="#646464" p-id="3995"></path><path d="M889.749333 304.917333l-170.666666-170.666666A21.333333 21.333333 0 0 0 704 128h-64v192a21.333333 21.333333 0 0 1-21.333333 21.333333H277.333333a21.333333 21.333333 0 0 1-21.333333-21.333333V128h-21.333333a106.773333 106.773333 0 0 0-106.666667 106.666667v554.666666a106.773333 106.773333 0 0 0 106.666667 106.666667h21.333333V490.666667a21.333333 21.333333 0 0 1 21.333333-21.333334h469.333334a21.333333 21.333333 0 0 1 21.333333 21.333334v405.333333h21.333333a106.773333 106.773333 0 0 0 106.666667-106.666667V320a21.333333 21.333333 0 0 0-6.250667-15.082667z" fill="#646464" p-id="3996"></path><path d="M298.666667 896h426.666666V512H298.666667z m106.666666-298.666667h213.333334a21.333333 21.333333 0 0 1 0 42.666667H405.333333a21.333333 21.333333 0 0 1 0-42.666667z m0 128h213.333334a21.333333 21.333333 0 0 1 0 42.666667H405.333333a21.333333 21.333333 0 0 1 0-42.666667z" fill="#646464" p-id="3997"></path></svg>