<?xml version="1.0" standalone="no"?><!DOCTYPE svg PUBLIC "-//W3C//DTD SVG 1.1//EN" "http://www.w3.org/Graphics/SVG/1.1/DTD/svg11.dtd"><svg t="1758101491227" class="icon" viewBox="0 0 1024 1024" version="1.1" xmlns="http://www.w3.org/2000/svg" p-id="6109" xmlns:xlink="http://www.w3.org/1999/xlink" width="200" height="200"><path d="M469.333333 85.333333l23.722667 106.666667H853.333333a106.666667 106.666667 0 0 1 106.453334 99.669333L960 298.666667v554.666666a106.666667 106.666667 0 0 1-99.669333 106.453334L853.333333 960H354.986667L388.266667 853.333333H128a85.333333 85.333333 0 0 1-85.333333-85.333333V170.666667a85.333333 85.333333 0 0 1 85.333333-85.333334h341.333333z m384 149.333334h-350.805333l75.136 338.133333v-118.741333h126.634667v39.424h-81.237334v42.709333h75.264v37.930667h-75.264v47.786666h85.418667v39.424L597.333333 661.290667 640 853.333333h-206.976l-20.010667 64H853.333333a64 64 0 0 0 63.701334-57.856L917.333333 853.333333V298.666667a64 64 0 0 0-57.856-63.701334L853.333333 234.666667z m-30.165333 262.4c9.941333 0 18.346667 1.152 25.216 3.413333 6.912 2.304 12.416 5.76 16.597333 10.325333 4.181333 4.565333 7.168 10.24 8.96 16.896 1.792 6.656 2.688 14.464 2.688 23.424V661.333333h-43.306666v-98.858666l-0.128-5.12a60.117333 60.117333 0 0 0-1.066667-8.789334 22.101333 22.101333 0 0 0-4.053333-9.386666 16.085333 16.085333 0 0 0-7.893334-5.248 43.605333 43.605333 0 0 0-13.141333-1.621334c-8.96 0-16.341333 1.578667-22.101333 4.778667-5.76 3.2-9.856 8.96-12.245334 17.322667V661.333333h-43.306666v-161.28h43.306666v19.413334l2.901334-4.266667a40.704 40.704 0 0 1 16.810666-12.586667 78.933333 78.933333 0 0 1 30.762667-5.546666zM274.773333 325.632v55.637333H163.157333V537.6H274.773333v95.232h44.714667V537.6h109.226667V381.269333h-109.226667V327.338667l-44.714667-1.706667z m0 98.986667v69.973333H208.554667v-69.973333H274.773333z m108.885334 0v69.973333H319.488v-69.973333h64.170667z" p-id="6110"></path></svg>